<svg xmlns="http://www.w3.org/2000/svg" width="512" height="512" viewBox="0 0 512 512" role="img" aria-label="I Love Bio">
  <rect width="512" height="512" rx="72" fill="#0b0b0b"/>
  <g fill="#ffffff">
    <text x="78" y="318" font-family="ui-serif, Georgia, Cambria, 'Times New Roman', Times, serif" font-size="168" font-weight="700">I</text>
    <text x="244" y="318" font-family="ui-serif, Georgia, Cambria, 'Times New Roman', Times, serif" font-size="168" font-weight="700">BIO</text>
  </g>
  <g transform="translate(170 165)">
    <path d="M86 18c-12 0-23 6-30 16C49 24 38 18 26 18 10 18-2 32-2 49c0 39 58 79 58 79s58-40 58-79C114 32 102 18 86 18Z" fill="#e1252a"/>
    <path d="M78 4c10-6 17-4 24 1-5 10-14 16-26 18 0-7 1-14 2-19Z" fill="#88a67b"/>
    <rect x="19" y="52" width="70" height="28" rx="14" fill="#0b0b0b" opacity="0.15"/>
    <text x="54" y="72" text-anchor="middle" font-family="ui-sans-serif, system-ui" font-size="18" font-weight="800" fill="#ffd7d7">LOVE</text>
  </g>
</svg>
